<!doctype html>
<svg viewBox="213.336 322.548 182.496 196.53" width="182.496" height="196.53">
  <defs>
    <style type="text/css">
	.st0{fill:#FFFFFF;}
	.st1{fill:#6D1913;}
</style>
  </defs>
  <path class="st1" d="M227.56,392.82c0.42-11.62-0.97-25.97,0.58-40.22c1.83-16.84,17.66-30.23,34.83-30.05
		c17.5,0.18,32.62,13.98,34.4,31.17c0.57,5.49,0.47,10.96,0.48,16.45c0.03,17.31,0.27,34.62-0.1,51.92
		c-0.19,8.78,1.38,16.13,6.46,23.96c18.72,28.83-0.2,67.75-34.48,72.53c-30.22,4.21-56.77-18.79-56.39-49.05
		c0.13-10.79,3.87-20.48,10.86-28.71c2.54-2.99,3.51-6,3.44-9.89C227.42,419.12,227.56,407.3,227.56,392.82z" style=""></path>
  <path class="st1" d="M375.12,434.81c-14.42,0.11-24.66-13.7-19.99-27.37c4-11.72,11.29-21.64,18.25-31.71
		c0.77-1.12,1.57-2.31,2.89-0.35c7.23,10.67,15.15,21.03,18.78,33.62C398.78,421.93,388.68,434.7,375.12,434.81z" style=""></path>
  <path class="st1" d="M353.81,449.04c5.48,8.01,10.71,15.48,13.3,24.34c1.86,6.35-0.21,12.16-5,15.4
		c-5.06,3.42-12.42,3.21-17.29-0.49c-4.29-3.26-6.07-9.88-4.08-15.81C343.57,464.06,348.58,456.85,353.81,449.04z" style=""></path>
  <path class="st1" d="M339.67,322.58c5.57,7.73,10.23,14.94,13.1,23.08c2.93,8.28-0.45,15.54-8,18.18
		c-7.58,2.65-15.47-0.73-17.99-7.79c-1.52-4.26-1.05-8.5,0.77-12.54c1.35-3,2.84-5.96,4.51-8.79
		C334.39,330.73,336.95,326.89,339.67,322.58z" style=""></path>
  <path class="st0" d="M283.95,398.21c0,12.48,0.12,24.95-0.07,37.42c-0.06,4.24,1.07,7.4,4.11,10.6
		c11.35,11.97,12.85,28.85,4.28,42.59c-8.38,13.44-24.68,19.61-39.84,15.08c-15.23-4.54-25.64-18.86-25.1-34.9
		c0.3-8.97,3.63-16.88,10.12-23.09c3.06-2.93,4.1-6.03,4.08-10.11c-0.12-25.61-0.12-51.23-0.04-76.85
		c0.06-16.54,15.2-26.94,29.76-20.43c8.87,3.96,12.6,11.38,12.68,20.76C284.03,372.26,283.95,385.23,283.95,398.21z"></path>
  <path class="st1" d="M255.54,414.78c0-10.49,0.12-20.97-0.07-31.46c-0.06-3.32,0.62-4.64,4.32-4.59c9.56,0.14,9.57-0.05,9.57,9.65
		c0,19.14,0.05,38.28-0.06,57.42c-0.02,2.91,0.52,4.61,3.42,6.15c8.73,4.66,12.65,14.5,10.08,23.76c-2.5,8.99-11,15.5-20.25,15.53
		c-8.98,0.03-17.75-6.48-20.2-14.98c-2.75-9.56,1.09-19.46,9.9-24.29c2.61-1.43,3.39-2.93,3.35-5.73
		C255.45,435.76,255.54,425.27,255.54,414.78z" style=""></path>
</svg>