<!doctype html>
<svg viewBox="0.45 0.686 209.25 181.05" width="209.25" height="181.05">
  <defs>
    <style type="text/css">
	.st0{fill:#777777;}
	.st1{fill:#616060;}
	.st2{fill:#60605F;}
	.st3{fill:#979797;}
	.st4{fill:#ffffff;}
	.st5{fill:#898989;}
</style>
  </defs>
  <path class="st4" d="M209.66,180.43c0.22,1.05-0.5,0.96-1.15,0.96c-6.5,0-13-0.01-19.51-0.01c-6.26,0-12.53,0.03-18.79-0.04
		c-0.68-0.01-1.35,0.86-2.03,0.05c-0.02-2.58-0.06-5.16-0.05-7.74c0.01-1.59,0.14-3.19-0.16-4.77c-0.13-0.69,0.27-0.71,0.76-0.71
		c6.27,0.02,12.54,0.04,18.8,0.06c2.44,0.01,4.87-0.02,7.31,0.02c0.92,0.02,1.29-0.28,1.28-1.23c-0.03-3.99-0.02-7.98,0-11.96
		c0-0.93-0.45-1.39-1.32-1.23c-2.46,0.45-4.93,0.2-7.4,0.15c-1.44-0.03-2.87,0.08-4.3,0.11c-0.64,0.01-1.24-0.1-1.12-0.85
		c0.42-2.7,0.12-5.41,0.19-8.12c0.04-1.39-0.06-2.79-0.09-4.18c-0.02-0.57,0.13-0.86,0.82-0.84c3.59,0.07,7.18,0.1,10.77,0.11
		c2.39,0,2.41-0.03,2.42-2.46c0.02-3.51-0.01-7.02,0.02-10.53c0.01-0.86-0.25-1.19-1.17-1.18c-3.87,0.05-7.75,0.03-11.62,0.02
		c-1.32,0-1.27-0.1-1.22-1.43c0.15-3.79,0.18-7.58-0.01-11.36c-0.04-0.83,0.08-1.08,0.9-1.02c3.99,0.3,7.98-0.17,11.97,0.12
		c0.85,0.06,1.2-0.3,1.19-1.2c-0.05-3.95-0.05-7.9-0.05-11.84c0-0.78-0.1-1.38-1.09-1.26c-2.3,0.28-4.62,0.02-6.92,0.14
		c-1.67,0.08-3.35-0.04-5.02-0.03c-0.9,0.01-1.09-0.27-1.02-1.22c0.16-2.38,0.16-4.78,0.12-7.17c-0.03-1.59,0.22-3.18-0.15-4.77
		c-0.13-0.57,0.26-0.78,0.79-0.74c4.07,0.29,8.14-0.03,12.2,0.17c0.83,0.04,1.14-0.32,1.14-1.13c-0.02-3.95-0.02-7.9-0.03-11.84
		c0-1.21-0.26-1.3-1.51-1.28c-3.95,0.06-7.9,0.02-11.85-0.01c-0.44,0-0.97-0.17-0.78-0.78c0.39-1.22,0.19-2.46,0.17-3.68
		c-0.04-2.87,0.2-5.74-0.1-8.61c-0.07-0.64,0.25-0.72,0.78-0.71c3.95,0.03,7.9,0.01,11.85,0.07c1.09,0.02,1.46-0.33,1.44-1.45
		c-0.07-3.79-0.04-7.58-0.03-11.37c0-1.41-0.14-1.45-1.6-1.41c-3.35,0.08-6.71,0.06-10.06,0.03c-0.75-0.01-1.61,0.36-2.22-0.11
		c-0.68-0.53,0.02-1.33,0-2.02c-0.15-3.62,0.09-7.26-0.15-10.88c-0.04-0.63,0.18-0.85,0.81-0.84c4.06,0.11,8.13-0.1,12.2,0.16
		c0.69,0.05,1.03-0.31,1.03-1.01c0.01-4.11,0.03-8.21,0.04-12.32c0-0.83-0.43-1.05-1.22-1.05c-8.46,0.03-16.93,0.03-25.39,0.04
		c-1.54,0-1.48,0-1.37-1.51c0.08-1.19-0.05-2.39-0.04-3.59c0.02-2.19,0.07-4.39,0.1-6.58c0.03-0.19,0.1-0.39,0.08-0.58
		c-0.1-0.99,0.06-1.62,1.28-1.14c0.24,0.1,0.55,0.03,0.83,0.03c12.26,0,24.52,0,36.78-0.01c0.4,0,0.8-0.02,1.19-0.09
		c0.85-0.16,1.31,0.14,1.31,1.04c-0.24,1.64-0.17,3.3-0.2,4.94c-0.05,2.67,0.22,5.35,0.11,8c-0.2,4.91-0.06,9.81-0.11,14.71
		c-0.05,4.67,0,9.34-0.01,14c-0.01,45.31-0.01,90.63-0.02,135.94C209.45,179.76,209.38,180.13,209.66,180.43z" style=""></path>
  <path class="st4" d="M84.1,140.07c8.95,0.24,17.52,0.05,26.09,0.12c2.16,0.02,2.12,0.06,2.21-2.08c0.29-6.65,0.88-13.28,1.59-19.9
		c0.41-3.81,1.02-7.59,1.86-11.3c0.89-3.94,1.68-7.92,2.97-11.78c1.72-5.16,3.55-10.28,5.78-15.24c1.9-4.24,4.02-8.38,5.85-12.65
		c1.92-4.48,3.84-8.96,5.12-13.7c0.62-2.3,1.27-4.59,1.77-6.92c0.78-3.62,1.2-7.29,1.67-10.96c0.87-6.74,1.13-13.49,1-20.28
		c-0.01-0.73,0.13-1.06,1-1.03c3.99,0.15,7.98,0.2,11.96-0.03c0.74-0.04,0.92,0.27,0.91,0.89c-0.1,7.21-0.23,14.42-1.24,21.59
		c-0.54,3.86-0.99,7.74-1.73,11.56c-0.66,3.38-1.69,6.69-2.56,10.04c-1.08,4.12-2.74,8.03-4.29,11.98c-1.21,3.06-2.69,6-4.05,9
		c-1.32,2.93-2.57,5.89-3.95,8.79c-1.33,2.81-2.21,5.78-3.29,8.68c-1.11,2.97-1.84,6.06-2.59,9.14c-0.9,3.71-1.62,7.45-2.2,11.21
		c-0.72,4.65-1.08,9.34-1.21,14.04c-0.07,2.63-0.25,5.25-0.62,7.86c-0.13,0.92,0.45,1.11,1.16,1.11c5.59,0,11.18-0.01,16.77-0.03
		c2.51-0.01,5.03-0.09,7.54,0.08c0.45,0.03,0.85-0.11,1.27-0.27c0.24-0.09,0.58-0.16,0.7,0.21c0.09,0.27-0.11,0.43-0.29,0.6
		c-2.91,2.87-5.82,5.75-8.73,8.63c-1.78,1.76-3.57,3.52-5.36,5.28c-1.45,1.42-2.89,2.87-4.28,4.33c-2.74,2.89-5.68,5.58-8.43,8.47
		c-2.22,2.33-4.62,4.5-6.81,6.86c-0.47,0.51-0.77,0.45-1.24-0.03c-3.95-4-7.92-7.97-11.9-11.95c-2.96-2.96-5.95-5.89-8.92-8.85
		c-3.53-3.52-7.07-7.03-10.57-10.57C86.15,142.08,85.35,141.05,84.1,140.07z" style=""></path>
  <path class="st4" d="M0.45,140.14c2.38,0.25,4.68,0.03,6.98,0.04c6.31,0.02,12.62,0,18.92-0.01c2.18,0,2.13-0.01,2.23-2.23
		c0.3-6.41,0.69-12.81,1.55-19.18c0.68-5.06,1.47-10.08,2.54-15.06c0.48-2.25,1.28-4.43,1.86-6.66c1.63-6.29,4.08-12.26,6.77-18.16
		c2.19-4.8,4.48-9.56,6.52-14.42c1.72-4.1,3.31-8.25,4.42-12.58c1.6-6.26,2.93-12.58,3.28-19.04c0.32-5.81,0.94-11.61,0.77-17.44
		c-0.02-0.82,0.12-1.05,1.06-1.02c3.83,0.11,7.66,0.15,11.49,0.02c1.14-0.04,1.29,0.3,1.32,1.2c0.08,3.2-0.15,6.38-0.4,9.56
		c-0.27,3.42-0.5,6.84-0.72,10.26c-0.22,3.38-0.84,6.71-1.42,10.04c-0.69,3.92-1.57,7.8-2.68,11.61c-1.55,5.3-3.51,10.44-5.7,15.53
		c-3.24,7.51-7.05,14.77-9.71,22.53c-2,5.83-3.65,11.77-4.64,17.86c-1.39,8.61-2.1,17.3-2.5,26.02c-0.04,0.92,0.22,1.29,1.19,1.28
		c7.98-0.05,15.97-0.06,23.95-0.08c0.48,0,0.95,0.05,1.41-0.15c0.24-0.1,0.58-0.23,0.75,0.06c0.17,0.3-0.15,0.5-0.34,0.69
		c-2.11,2.12-4.23,4.23-6.35,6.34c-4.51,4.5-9.03,9.01-13.54,13.51c-4.57,4.56-9.14,9.12-13.69,13.69c-0.51,0.52-0.7,0.53-1.24-0.06
		c-1.89-2.05-3.88-4-5.86-5.97c-2.59-2.59-5.21-5.15-7.8-7.74c-1.38-1.38-2.73-2.79-4.1-4.18c-3.74-3.75-7.45-7.53-11.25-11.22
		C3.82,143.53,2.36,141.64,0.45,140.14z" style=""></path>
</svg>